{"title":"Blood.2012 BRRip XViD juggs","uid":8530449,"size":739787431,"categoryP":"video","categoryS":"movies","magnet":"?xt=urn:btih:a14152e6b09ad1364fce9445899e1546d52aa5d7&amp;dn=Blood.2012+BRRip+XViD+juggs&amp;tr=udp%3A%2F%2Ftracker.openbittorrent.com%3A80&amp;tr=udp%3A%2F%2Fopen.demonii.com%3A1337&amp;tr=udp%3A%2F%2Ftracker.coppersurfer.tk%3A6969&amp;tr=udp%3A%2F%2Fexodus.desync.com%3A6969","seeders":3,"leechers":3,"uploader":"juggs99","files":3,"time":1370134092,"description":"Source: ROVERS(Thanks)\n &lt;a href=&quot;\nhttp://www.imdb.com/title/tt2078552/&quot; rel=&quot;nofollow&quot; target=&quot;_NEW&quot;&gt;\nhttp://www.imdb.com/title/tt2078552/&lt;/a&gt;\n\n\n\nFormat: AVI\nFormat/Info: Audio Video Interleave\nFile size: 697 MiB\nDuration: 1h 32mn\nOverall bit rate: 1 056 Kbps\nWriting library: VirtualDub build 32842/release\n\nVideo\nID: 0\nFormat: MPEG-4 Visual\nFormat profile: Advanced Simple@L5\nFormat settings, BVOP: 2\nFormat settings, QPel: No\nFormat settings, GMC: No warppoints\nFormat settings, Matrix: Default (H.263)\nMuxing mode: Packed bitstream\nCodec ID: XVID\nCodec ID/Hint: XviD\nDuration: 1h 32mn\nBit rate: 919 Kbps\nWidth: 640 pixels\nHeight: 272 pixels\nDisplay aspect ratio: 2.35:1\nFrame rate: 23.976 fps\nColor space: YUV\nChroma subsampling: 4:2:0\nBit depth: 8 bits\nScan type: Progressive\nCompression mode: Lossy\nBits/(Pixel*Frame): 0.220\nStream size: 606 MiB (87%)\nWriting library: XviD 64\n\nAudio\nID: 1\nFormat: MPEG Audio\nFormat version: Version 1\nFormat profile: Layer 3\nMode: Joint stereo\nMode extension: MS Stereo\nCodec ID: 55\nCodec ID/Hint: MP3\nDuration: 1h 32mn\nBit rate mode: Constant\nBit rate: 128 Kbps\nChannel(s): 2 channels\nSampling rate: 48.0 KHz\nCompression mode: Lossy\nStream size: 84.5 MiB (12%)\nAlignment: Split accross interleaves\nInterleave, duration: 42 ms (1.00 video frame)\nInterleave, preload duration: 500 ms\nWriting library: LAME3.98\n\n\n\nThriller charting the moral collapse of a police family. Two cop brothers, smothered by the shadow of their former police chief father, must investigate a crime they themselves have committed \n &lt;a href=&quot;\nhttp://www.shotpix.com/images/09319463718818027166.png&quot; rel=&quot;nofollow&quot; target=&quot;_NEW&quot;&gt;\nhttp://www.shotpix.com/images/09319463718818027166.png&lt;/a&gt; &lt;a href=&quot;\nhttp://www.shotpix.com/images/89529340053339193664.png&quot; rel=&quot;nofollow&quot; target=&quot;_NEW&quot;&gt;\nhttp://www.shotpix.com/images/89529340053339193664.png&lt;/a&gt; &lt;a href=&quot;\nhttp://www.shotpix.com/images/72389851313404763760.png&quot; rel=&quot;nofollow&quot; target=&quot;_NEW&quot;&gt;\nhttp://www.shotpix.com/images/72389851313404763760.png&lt;/a&gt;","torrent":{"xt":"urn:btih:a14152e6b09ad1364fce9445899e1546d52aa5d7","amp;dn":"Blood.2012+BRRip+XViD+juggs","amp;tr":["udp%3A%2F%2Ftracker.openbittorrent.com%3A80","udp%3A%2F%2Fopen.demonii.com%3A1337","udp%3A%2F%2Ftracker.coppersurfer.tk%3A6969","udp%3A%2F%2Fexodus.desync.com%3A6969"],"infoHash":"a14152e6b09ad1364fce9445899e1546d52aa5d7","infoHashBuffer":{"type":"Buffer","data":[161,65,82,230,176,154,209,54,79,206,148,69,137,158,21,70,213,42,165,215]},"announce":[],"urlList":[]}}